# xmcd
#
# Track frame offsets:
#	150
#	20165
#	45016
#	64173
#	82770
#	102682
#	119016
#	142337
#	162135
#	176743
#	196224
#	213857
#	230550
#	252521
#	272738
#	292209
#	308631
#	327826
#	344148
#
# Disc length: 4798 seconds
#
# Revision: 0
# Processed by: cddbd v1.4PL0 Copyright (c) Steve Scherf et al.
# Submitted via: EasyCDDAExtractor 4.5.0.2
#
DISCID=2812bc13
DTITLE=Stachursky - The best of Stachursky
DYEAR=1900
DGENRE=Dance
TTITLE0=Zostanmy razem
TTITLE1=Po prostu taki sam
TTITLE2=Ty i ja
TTITLE3=Czekalem na taka jak Ty
TTITLE4=Gdy zaplaczesz
TTITLE5=Milosc jak ogien
TTITLE6=Kowboyskie zycie
TTITLE7=Urodzilem sie aby grac
TTITLE8=Nikogo nie ma
TTITLE9=Chcesz czy nie
TTITLE10=Jak w niebie
TTITLE11=Pa pa bra para ra ra
TTITLE12=Play baby
TTITLE13=Taki jestem
TTITLE14=Wierze
TTITLE15=Typ niepokorny
TTITLE16=Czuje i wiem
TTITLE17=Pamietam Ciebie z tamtych lat
TTITLE18=Dziewczêce igraszki
EXTD=
EXTT0=
EXTT1=
EXTT2=
EXTT3=
EXTT4=
EXTT5=
EXTT6=
EXTT7=
EXTT8=
EXTT9=
EXTT10=
EXTT11=
EXTT12=
EXTT13=
EXTT14=
EXTT15=
EXTT16=
EXTT17=
EXTT18=
PLAYORDER=
